<svg xmlns="http://www.w3.org/2000/svg" viewBox="0 0 24 24" fill="white"><path d="M13.682 9.424c-1.353-.198-2.842-.401-4.062-.401-1.796 0-3.322.257-3.322 2.372 0 1.45.922 2.112 2.176 2.112 1.583 0 2.24-.658 2.895-1.584 1.121 1.053 2.11 1.584 3.623 1.584 2.11 0 3.364-1.055 3.364-3.167v-3.82c0-1.055-.526-1.583-1.848-1.583h-2.834v3.818l.008.669zm-.045-2.02l.006 2.02h-1.53c-.347-.446-.723-.896-1.144-1.344h2.668zM24 21.365c-2.88 1.95-6.416 2.635-10.024 2.635-3.608 0-6.912-.915-9.352-2.31L1.44 21.05l.3-.64c.24-.51 1.152.05 1.584.28 2.256 1.17 5.168 1.8 8.16 1.8 3.552 0 7.416-.85 10.152-2.73l.6-.45.4.65.36.755z"/></svg>
