<svg xmlns="http://www.w3.org/2000/svg" viewBox="0 0 24 24" fill="white"><path d="M22.282 9.821a5.985 5.985 0 0 0-.516-4.91 6.046 6.046 0 0 0-4.71-3.13 5.823 5.823 0 0 0-5.696 2.058 6.03 6.03 0 0 0-4.757 2.35 5.8 5.8 0 0 0-.714 5.378 6.03 6.03 0 0 0-1.611 3.704c0 2.922 2.053 5.401 4.801 6.057a5.87 5.87 0 0 0 5.688 2.36 6.031 6.031 0 0 0 4.662-3.633 5.83 5.83 0 0 0 5.117-2.922 6.039 6.039 0 0 0 .336-7.312zm-12.016 8.067l-2.58-1.49v-3l2.58 1.49v3zm-3.488-2.014l-2.58-1.49v-3l2.58 1.49v3zm0-4.028l-2.58-1.49v-3l2.58 1.49v3zm3.488-2.013V2.427l2.58 1.49v2.999l-2.58-1.49zm3.488 2.013l2.58 1.49v3l-2.58-1.49v-3zm3.488 2.014l2.58 1.49v3l-2.58-1.49v-3z"/></svg>
