<svg xmlns="http://www.w3.org/2000/svg" viewBox="0 0 24 24" fill="white"><path d="M11.927 0C5.352 0 4.414 2.858 4.414 2.858V5.32h5.5l.394.394v5.337l-.394.394H4.414v2.464c0 0-.158 2.857 6.427 2.857h2.464s6.427.158 6.427-6.427V8.177s-.158-6.427-6.427-6.427h-2.464s-1.086-1.75-6.427-1.75zm3.414 2.414a.75.75 0 1 1 0 1.5.75.75 0 0 1 0-1.5zm-6.828 17.672c6.575 0 7.513-2.858 7.513-2.858v-2.462h-5.5l-.394-.394V8.423l.394-.394H19.586v-2.464c0 0 .158-2.857-6.427-2.857h-2.464s-6.427-.158-6.427 6.427v2.462s.158 6.427 6.427 6.427h2.464s1.086 1.75 6.427 1.75zm-3.414-2.414a.75.75 0 1 1 0-1.5.75.75 0 0 1 0 1.5z"/></svg>
